<svg width="200" height="110" viewBox="0 0 200 110" fill="none" xmlns="http://www.w3.org/2000/svg">
  <!-- 書1（最下） -->
  <rect x="20" y="68" width="90" height="16" rx="2" fill="none" stroke="#3D2B1A" stroke-width="1.6"/>
  <circle cx="32" cy="76" r="1.8" fill="#3D2B1A"/>
  <circle cx="48" cy="76" r="1.8" fill="#3D2B1A"/>
  <circle cx="64" cy="76" r="1.8" fill="#3D2B1A"/>
  <circle cx="80" cy="76" r="1.8" fill="#3D2B1A"/>
  <circle cx="96" cy="76" r="1.8" fill="#3D2B1A"/>
  <!-- 書2（中） -->
  <rect x="20" y="44" width="90" height="16" rx="2" fill="none" stroke="#3D2B1A" stroke-width="1.6"/>
  <circle cx="32" cy="52" r="1.8" fill="#3D2B1A"/>
  <circle cx="48" cy="52" r="1.8" fill="#3D2B1A"/>
  <circle cx="64" cy="52" r="1.8" fill="#3D2B1A"/>
  <circle cx="80" cy="52" r="1.8" fill="#3D2B1A"/>
  <circle cx="96" cy="52" r="1.8" fill="#3D2B1A"/>
  <!-- 書3（上） -->
  <rect x="20" y="20" width="90" height="16" rx="2" fill="none" stroke="#3D2B1A" stroke-width="1.6"/>
  <circle cx="32" cy="28" r="1.8" fill="#3D2B1A"/>
  <circle cx="48" cy="28" r="1.8" fill="#3D2B1A"/>
  <circle cx="64" cy="28" r="1.8" fill="#3D2B1A"/>
  <circle cx="80" cy="28" r="1.8" fill="#3D2B1A"/>
  <circle cx="96" cy="28" r="1.8" fill="#3D2B1A"/>
  <!-- 文字 -->
  <text x="122" y="50" font-family="Georgia, serif" font-size="13" fill="#3D2B1A" letter-spacing="1.5">Jan Jan's</text>
  <text x="122" y="66" font-family="'Helvetica Neue', sans-serif" font-size="7.5" fill="#3D2B1A" letter-spacing="3">ARTISAN</text>
  <text x="122" y="78" font-family="'Helvetica Neue', sans-serif" font-size="7.5" fill="#3D2B1A" letter-spacing="3">ATELIER</text>
</svg>
